<svg width="40" height="40" viewBox="0 0 40 40" fill="none" xmlns="http://www.w3.org/2000/svg">
<rect width="40" height="40" rx="20" fill="#1E1F1E"/>
<path d="M15.6797 21.5234V19.2812C15.6797 18.974 15.6198 18.6849 15.5 18.4141C15.3854 18.138 15.2266 17.8984 15.0234 17.6953C14.8203 17.4922 14.5807 17.3333 14.3047 17.2188C14.0339 17.099 13.7448 17.0391 13.4375 17.0391C13.1302 17.0391 12.8385 17.099 12.5625 17.2188C12.2917 17.3333 12.0547 17.4922 11.8516 17.6953C11.6484 17.8984 11.487 18.138 11.3672 18.4141C11.2526 18.6849 11.1953 18.974 11.1953 19.2812V21.5234H15.6797ZM17.9219 26H15.6797V23.7578H11.1953V26H8.96094V19.2812C8.96094 18.6615 9.07812 18.0807 9.3125 17.5391C9.54688 16.9922 9.86458 16.5156 10.2656 16.1094C10.6719 15.7031 11.1458 15.3828 11.6875 15.1484C12.2344 14.9141 12.8177 14.7969 13.4375 14.7969C14.0573 14.7969 14.638 14.9141 15.1797 15.1484C15.7266 15.3828 16.2031 15.7031 16.6094 16.1094C17.0156 16.5156 17.3359 16.9922 17.5703 17.5391C17.8047 18.0807 17.9219 18.6615 17.9219 19.2812V26Z" fill="#FF0060"/>
<path d="M30.9844 22.7969C30.9844 23.2604 30.8958 23.6979 30.7188 24.1094C30.5469 24.5156 30.3073 24.8724 30 25.1797C29.6979 25.4818 29.3411 25.7214 28.9297 25.8984C28.5234 26.0703 28.0885 26.1562 27.625 26.1562C27.2083 26.1562 26.8073 26.0833 26.4219 25.9375C26.0417 25.7917 25.6979 25.5781 25.3906 25.2969C25.0833 25.5781 24.737 25.7917 24.3516 25.9375C23.9661 26.0833 23.5651 26.1562 23.1484 26.1562C22.6849 26.1562 22.2474 26.0703 21.8359 25.8984C21.4297 25.7214 21.0729 25.4818 20.7656 25.1797C20.4635 24.8724 20.224 24.5156 20.0469 24.1094C19.875 23.6979 19.7891 23.2604 19.7891 22.7969V14.7969H22.0312V22.7969C22.0312 22.9531 22.0599 23.1016 22.1172 23.2422C22.1745 23.3776 22.2526 23.4974 22.3516 23.6016C22.4557 23.7005 22.5755 23.7786 22.7109 23.8359C22.8464 23.8932 22.9922 23.9219 23.1484 23.9219C23.3047 23.9219 23.4505 23.8932 23.5859 23.8359C23.7214 23.7786 23.8385 23.7005 23.9375 23.6016C24.0417 23.4974 24.1224 23.3776 24.1797 23.2422C24.237 23.1016 24.2656 22.9531 24.2656 22.7969V14.7969H26.5078V22.7969C26.5078 22.9531 26.5365 23.1016 26.5938 23.2422C26.651 23.3776 26.7292 23.4974 26.8281 23.6016C26.9323 23.7005 27.0521 23.7786 27.1875 23.8359C27.3229 23.8932 27.4688 23.9219 27.625 23.9219C27.7812 23.9219 27.9271 23.8932 28.0625 23.8359C28.1979 23.7786 28.3151 23.7005 28.4141 23.6016C28.5182 23.4974 28.599 23.3776 28.6562 23.2422C28.7188 23.1016 28.75 22.9531 28.75 22.7969V14.7969H30.9844V22.7969Z" fill="#EDEFFD"/>
</svg>
